<svg xmlns="http://www.w3.org/2000/svg" viewBox="0 0 420 120" role="img" aria-label="ChartNav by ARCG Systems">
  <title>ChartNav by ARCG Systems</title>

  <!-- Mark (scaled copy of logo-mark) -->
  <g transform="translate(10 20)">
    <g stroke="#C9A227" stroke-width="0.8" stroke-linecap="round" fill="none" opacity="0.75">
      <path d="M4 15h6"/>
      <path d="M4 22h5"/>
      <path d="M38 15h6"/>
      <path d="M39 22h5"/>
      <path d="M6 33h7"/>
      <path d="M35 33h7"/>
      <path d="M15 43v3"/>
      <path d="M33 43v3"/>
    </g>
    <g fill="#C9A227">
      <circle cx="3" cy="15" r="0.9"/>
      <circle cx="3" cy="22" r="0.9"/>
      <circle cx="45" cy="15" r="0.9"/>
      <circle cx="45" cy="22" r="0.9"/>
      <circle cx="5" cy="33" r="0.9"/>
      <circle cx="43" cy="33" r="0.9"/>
      <circle cx="15" cy="47" r="0.9"/>
      <circle cx="33" cy="47" r="0.9"/>
    </g>
    <g fill="#D8B547">
      <rect x="19" y="11" width="10" height="30" rx="0.8"/>
      <rect x="9"  y="19" width="30" height="10" rx="0.8"/>
    </g>
    <g fill="#E8CE7A">
      <path d="M24 8.5 C 19 4.5, 12 5.5, 11 9.5 C 15 7.8, 20 8.8, 24 10.2 Z"/>
      <path d="M24 8.5 C 29 4.5, 36 5.5, 37 9.5 C 33 7.8, 28 8.8, 24 10.2 Z"/>
      <circle cx="24" cy="8.5" r="1.3"/>
    </g>
    <g stroke="#C0392B" stroke-width="1.3" stroke-linecap="round" fill="none">
      <line x1="24" y1="13" x2="24" y2="39"/>
      <path d="M22 18 Q26 21 22 24 Q18 27 22 30 Q26 33 22 36"/>
      <path d="M26 18 Q22 21 26 24 Q30 27 26 30 Q22 33 26 36"/>
      <circle cx="24" cy="14" r="0.9" fill="#C0392B"/>
    </g>
  </g>

  <!-- Wordmark -->
  <g font-family="Inter, -apple-system, 'SF Pro Display', system-ui, sans-serif">
    <text x="80" y="62"
          font-size="38" font-weight="500" letter-spacing="-0.02em"
          fill="#FAFAF7">ChartNav</text>

    <!-- Sub-lockup "— BY ARCG SYSTEMS —" -->
    <g transform="translate(80 82)">
      <line x1="0"  y1="0" x2="8" y2="0" stroke="#C9A227" stroke-width="1" opacity="0.6"/>
      <text x="14" y="4"
            font-size="11" font-weight="500" letter-spacing="0.22em"
            fill="#C9A227">BY ARCG SYSTEMS</text>
      <line x1="186" y1="0" x2="194" y2="0" stroke="#C9A227" stroke-width="1" opacity="0.6"/>
    </g>
  </g>
</svg>
